<svg xmlns="http://www.w3.org/2000/svg" width="1065" height="148" viewBox="0 0 1065 148">
  <g id="Group_2" data-name="Group 2" transform="translate(-411 -306.001)">
    <path id="Subtraction_2" data-name="Subtraction 2" d="M330.317,144H64V33.484A162.325,162.325,0,0,1,168-4,164.243,164.243,0,0,1,200.85-.689a162.123,162.123,0,0,1,58.285,24.526,163.48,163.48,0,0,1,59.055,71.716A161.977,161.977,0,0,1,330.317,144Z" transform="translate(347 310)" fill="#6ccbf0" opacity="0.04"/>
    <path id="Subtraction_10" data-name="Subtraction 10" d="M266.317,0H0V110.516a162.407,162.407,0,0,0,47.759,27.521A162.483,162.483,0,0,0,104,148a164.244,164.244,0,0,0,32.85-3.311,162.187,162.187,0,0,0,30.6-9.5,163,163,0,0,0,27.689-15.028,164.185,164.185,0,0,0,24.124-19.9,164.184,164.184,0,0,0,19.9-24.124,163,163,0,0,0,15.028-27.688,162.148,162.148,0,0,0,9.5-30.6A163.527,163.527,0,0,0,266.317,0Z" transform="translate(1476 454) rotate(180)" fill="#6ccbf0" opacity="0.04"/>
    <path id="Subtraction_5" data-name="Subtraction 5" d="M315.317,202H222V69.283A162.667,162.667,0,0,1,315.317,202Z" transform="translate(189 252)" fill="#9d8de8" opacity="0.04"/>
    <path id="Subtraction_8" data-name="Subtraction 8" d="M93.317,0H0V132.717a163.485,163.485,0,0,0,22.135-12.554,164.237,164.237,0,0,0,24.124-19.9,164.191,164.191,0,0,0,19.9-24.124A163.037,163.037,0,0,0,81.191,48.447a162.2,162.2,0,0,0,9.5-30.6A163.42,163.42,0,0,0,93.317,0Z" transform="translate(1476 454) rotate(180)" fill="#9d8de8" opacity="0.04"/>
  </g>
</svg>
