<svg xmlns="http://www.w3.org/2000/svg" xmlns:xlink="http://www.w3.org/1999/xlink" viewBox="0 0 343.88 131.15"><defs><style>.cls-1{fill:url(#linear-gradient);}.cls-2{fill:#fff;}.cls-3{fill:url(#linear-gradient-2);}</style><linearGradient id="linear-gradient" y1="65.57" x2="74.33" y2="65.57" gradientUnits="userSpaceOnUse"><stop offset="0" stop-color="#52e0e4"/><stop offset="1" stop-color="#a4faa1"/></linearGradient><linearGradient id="linear-gradient-2" x1="290.5" y1="81.95" x2="343.88" y2="81.95" xlink:href="#linear-gradient"/></defs><g id="Layer_2" data-name="Layer 2"><g id="Layer_1-2" data-name="Layer 1"><path class="cls-1" d="M72.52,39.65A56.47,56.47,0,0,0,58.27,14.54a3.27,3.27,0,0,0-.44-.47A66.67,66.67,0,0,0,38.23.3a3.47,3.47,0,0,0-3.47.37,3.51,3.51,0,0,0-1.44,3.18c.32,3.4.56,6.88.71,10.34.23,5.55.44,10.34,0,13.64-.72,6-4.32,12.26-10.42,18A63.6,63.6,0,0,0,.8,80.36a1.94,1.94,0,0,0-.07.33,57.77,57.77,0,0,0,3,29.7,57.21,57.21,0,0,0,12.76,19.72h0l.24.22.09.07.17.13.15.09.12.07.17.09.12.05.18.08.12,0,.18.06.12,0,.19,0,.12,0,.2,0H19a3.56,3.56,0,0,0,1.93-.57l0,0,.25-.18,0,0,.2-.17L50.75,102C69.82,86.59,78.36,62.15,72.52,39.65ZM7.64,82A56.59,56.59,0,0,1,28.06,51.31l.27-.22c7.4-6.93,11.8-14.68,12.72-22.42.46-3.87.25-8.92,0-14.78-.06-1.43-.13-2.87-.22-4.31a60.36,60.36,0,0,1,11.73,9.14C62.66,43,33.29,70.33,33,70.56c-15.59,13.73-18.38,33.49-18.37,46a49.42,49.42,0,0,1-4.33-8.67A50.69,50.69,0,0,1,7.64,82ZM46.23,96.58l-.24.21L21.84,120.05c-.46-10.62.91-31,15.9-44.26,1.13-1,23.07-21.41,24-44.69a47.85,47.85,0,0,1,4,10.32C70.87,61.29,63.23,83,46.23,96.58Z"/><path class="cls-2" d="M134.35,97a8.12,8.12,0,0,0-2.75-6.33q-2.73-2.46-9.71-4.42-10-2.76-15.4-7.25a14.45,14.45,0,0,1-5.42-11.71A15.2,15.2,0,0,1,107,55q5.94-4.85,15.3-4.85,10,0,16,5.38a16.44,16.44,0,0,1,5.8,13.28l-.08.26h-10a9.88,9.88,0,0,0-3.25-7.78,12.53,12.53,0,0,0-8.65-2.89c-3.48,0-6.17.82-8,2.46a8.07,8.07,0,0,0-2.83,6.38,7.06,7.06,0,0,0,3.1,5.88q3.1,2.33,10.29,4.4,9.74,2.73,14.83,7.42a15.59,15.59,0,0,1,5.1,12,14.65,14.65,0,0,1-6,12.28q-6,4.59-15.85,4.59a27.47,27.47,0,0,1-16.45-5q-7-5-6.8-14.15l.08-.25h9.95q0,5.56,3.84,8.39a15.38,15.38,0,0,0,9.38,2.83q5.47,0,8.52-2.32A7.47,7.47,0,0,0,134.35,97Z"/><path class="cls-2" d="M173.7,113.78q-10.06,0-15.74-6.35T152.28,91v-1.7q0-10.12,5.68-16.69a18.34,18.34,0,0,1,14.64-6.52q9.27,0,14,5.72t4.76,15.28v5.56H163l-.09.22a15.1,15.1,0,0,0,3,9.18q2.81,3.52,8.46,3.53a23.31,23.31,0,0,0,7.29-1,20.33,20.33,0,0,0,5.71-2.93l3.36,6.76a21.84,21.84,0,0,1-7,3.87A29.18,29.18,0,0,1,173.7,113.78Zm-1.1-39.44a8,8,0,0,0-6.46,2.91,14.42,14.42,0,0,0-3,7.59l.09.21h18v-.81a11.59,11.59,0,0,0-2.06-7.16C177.75,75.25,175.57,74.34,172.6,74.34Z"/><path class="cls-2" d="M219.27,113.78q-10.08,0-15.75-6.35T197.84,91v-1.7q0-10.12,5.68-16.69a18.34,18.34,0,0,1,14.64-6.52q9.27,0,14,5.72T237,87.05v5.56H208.51l-.08.22a15,15,0,0,0,3,9.18q2.81,3.52,8.46,3.53a23.22,23.22,0,0,0,7.29-1,20.52,20.52,0,0,0,5.72-2.93l3.35,6.76a21.84,21.84,0,0,1-7,3.87A29.16,29.16,0,0,1,219.27,113.78Zm-1.11-39.44a8,8,0,0,0-6.46,2.91,14.5,14.5,0,0,0-3,7.59l.09.21h18v-.81a11.65,11.65,0,0,0-2.06-7.16C223.31,75.25,221.14,74.34,218.16,74.34Z"/><path class="cls-2" d="M243.41,90.53q0-11,4.71-17.74a15.28,15.28,0,0,1,13.27-6.74,14.45,14.45,0,0,1,6.69,1.51,15.12,15.12,0,0,1,5.12,4.31V46.58h10.33v66.31h-8.37l-1.24-5.83a15.23,15.23,0,0,1-5.35,5,14.88,14.88,0,0,1-7.27,1.72q-8.46,0-13.18-6.16t-4.71-16.2Zm10.33.89q0,6.38,2.44,10.16c1.63,2.52,4.21,3.79,7.76,3.79a10.29,10.29,0,0,0,5.54-1.41,10.56,10.56,0,0,0,3.72-4V79.91a10.87,10.87,0,0,0-3.74-4A10.09,10.09,0,0,0,264,74.51,8.33,8.33,0,0,0,256.24,79q-2.51,4.44-2.5,11.58Z"/><path class="cls-3" d="M316.77,72.94,328.37,51h14.45L324.46,81.69l19.42,31.2h-15L316.94,90.57,305,112.89H290.5l18.83-31.2L291,51h14.36Z"/></g></g></svg>