<svg xmlns="http://www.w3.org/2000/svg" viewBox="0 0 74.33 131.15"><defs><style>.cls-1{fill:#17144b;}</style></defs><g id="Layer_2" data-name="Layer 2"><g id="Layer_1-2" data-name="Layer 1"><path class="cls-1" d="M72.52,39.65A56.47,56.47,0,0,0,58.27,14.54a3.27,3.27,0,0,0-.44-.47A66.67,66.67,0,0,0,38.23.3a3.47,3.47,0,0,0-3.47.37,3.51,3.51,0,0,0-1.44,3.18c.32,3.4.56,6.88.71,10.34.23,5.55.44,10.34,0,13.64-.72,6-4.32,12.26-10.42,18A63.6,63.6,0,0,0,.8,80.36a1.94,1.94,0,0,0-.07.33,57.77,57.77,0,0,0,3,29.7,57.21,57.21,0,0,0,12.76,19.72h0l.24.22.09.07.17.13.15.09.12.07.17.09.12.05.18.08.12,0,.18.06.12,0,.19,0,.12,0,.2,0H19a3.56,3.56,0,0,0,1.93-.57l0,0,.25-.18,0,0,.2-.17L50.75,102C69.82,86.59,78.36,62.15,72.52,39.65ZM7.64,82A56.59,56.59,0,0,1,28.06,51.31l.27-.22c7.4-6.93,11.8-14.68,12.72-22.42.46-3.87.25-8.92,0-14.78-.06-1.43-.13-2.87-.22-4.31a60.36,60.36,0,0,1,11.73,9.14C62.66,43,33.29,70.33,33,70.56c-15.59,13.73-18.38,33.49-18.37,46a49.42,49.42,0,0,1-4.33-8.67A50.69,50.69,0,0,1,7.64,82ZM46.23,96.58l-.24.21L21.84,120.05c-.46-10.62.91-31,15.9-44.26,1.13-1,23.07-21.41,24-44.69a47.85,47.85,0,0,1,4,10.32C70.87,61.29,63.23,83,46.23,96.58Z"/></g></g></svg>